<?xml version="1.0" encoding="utf-8"?>
<!-- Generator: Adobe Illustrator 19.0.0, SVG Export Plug-In . SVG Version: 6.00 Build 0)  -->
<svg version="1.1" id="Selfmade_by_NICF-Nettie" xmlns="http://www.w3.org/2000/svg" xmlns:xlink="http://www.w3.org/1999/xlink"
	 x="0px" y="0px" viewBox="0 0 483.1 199.9" style="enable-background:new 0 0 483.1 199.9;" xml:space="preserve">
<g id="Top_Gun_Maverick">
	<path d="M343.6,87.4l10.8,36.4h13.7V68.2h75.5v0H473l-15.5-14.5h-73.6v0h-29.9V87l-10.2-33.3h-14.3v70.1h14.3V87.4z M187.8,128.3
		c-2.1,12.9-4.1,25.8-6.2,38.7h8.6c0.2-1.9,0.5-3.6,0.7-5.5h5.9c0.3,1.8,0.5,3.6,0.8,5.5h9.4c-2.1-13-4.1-25.8-6.2-38.7H187.8z
		 M191.8,154.5c0.6-5.2,1.3-10.3,1.9-15.4c0.1,0,0.2,0,0.3,0c0.7,5.1,1.3,10.2,2,15.4H191.8z M124.9,90.6h-88l19.1,14.5h68.9V90.6z
		 M124.9,71.9H12.1l19.1,14.5h93.6V71.9z M223.4,167c2.1-12.9,4.2-25.8,6.3-38.7h-8.8c-1.1,8.7-2.2,17.4-3.2,26c-0.1,0-0.2,0-0.3,0
		c-1.1-8.7-2.1-17.3-3.2-26h-9.7c2.1,13,4.2,25.8,6.3,38.7H223.4z M278,167h9.4v-38.7H278V167z M212.8,100h11.9L237,89.5v-27
		l-11.5-8.8h-28v70.2h15.3V100z M213.4,67.1h8.2v19.3h-8.2V67.1z M272.9,123.8l11.7-10.7V86.5h-20.7v13.4h5.6v9.9h-9.4V67.2h9.6
		v12.3h14.7V62.6l-9.4-8.8h-20.4l-9.5,8.8v50.6l11.5,10.7H272.9z M271.2,148.7c3.7-1.2,3.9-1.6,3.9-5.1c0-2.4,0-4.9,0-7.3
		c0-1.6,0-3.2-0.2-4.8c-0.2-1.9-1-2.7-2.8-3.1c-0.5-0.1-1-0.2-1.5-0.2c-6,0-12,0-18-0.1c-0.1,0-0.3,0.1-0.4,0.1V167h9.4v-14.6
		c0.7,0,1.3,0,1.8,0c1.9,0,2.2,0.3,2.2,2.2c0,3.1,0,6.2,0,9.2v3.2h9.5c0-0.6,0-1,0-1.3c0-3.7-0.1-7.4,0-11.2
		C275.3,151.7,274.6,149.5,271.2,148.7z M265.7,144.1c0,1.1-0.5,1.6-1.5,1.7c-0.7,0-1.5,0-2.4,0v-10.5c0.1-0.1,0.2-0.1,0.2-0.1
		c4.1-0.2,3.6,0.2,3.6,3.4C265.6,140.3,265.6,142.2,265.7,144.1z M249.1,135.2c0.2-2.4,0.4-4.6,0.5-6.9h-17.8V167h17.9v-7h-8.4
		v-10.4h7.5c0.2-2.4,0.4-4.6,0.5-7h-8v-7.5H249.1z M183.7,123.8l11.2-10.6V62.6l-11.4-8.8h-16.9l-11.3,8.8v50.7l10.9,10.6H183.7z
		 M170.9,67.2h8.9v42.7h-8.9V67.2z M339.6,141.4h37.1l17.4-13.2h-49.9L339.6,141.4z M334.5,146.6c-0.1-0.5-0.1-1.2,0-1.7
		c0.9-2.6,1.9-5.3,2.8-7.9c1-2.8,2-5.7,3.1-8.7h-9.9c-1.6,4.9-3.2,9.8-4.8,14.7l-0.4-0.1v-14.6h-9.5V167h9.5v-15.7
		c0.1,0,0.2,0,0.3,0c1.4,5.2,2.9,10.5,4.4,15.8h10c-0.1-0.4-0.1-0.6-0.2-0.9C338,159.6,336.2,153.1,334.5,146.6z M326.7,53.7h-15
		V110h-8.9V53.7h-15.7v59.6l10.4,10.6h18.1l11-10.6V53.7z M304.2,149.5c0,3.2,0,6.4,0,9.6c0,1.1-0.5,1.5-1.5,1.6c-0.6,0-1.1,0-1.7,0
		c-1-0.1-1.4-0.6-1.4-1.6c0-7.7,0-15.4,0-23c0-1,0.5-1.5,1.5-1.5c0.4,0,0.9,0,1.3,0c1.2,0,1.6,0.4,1.6,1.7c0,2,0,4.1,0,6.1
		c0,0.5,0,1,0,1.5h9.2c0-4,0.1-8,0-11.9c-0.1-2-1.2-3-3.1-3.4c-0.6-0.1-1.2-0.3-1.8-0.3c-3.8,0-7.7-0.1-11.5,0c-1,0-2,0.1-3,0.4
		c-2.2,0.5-3.4,1.8-3.7,4c-0.1,0.6-0.1,1.3-0.1,1.9c0,8.6,0,17.1,0,25.7c0,0.9,0.1,1.8,0.2,2.7c0.3,2.4,1.6,3.8,4,4
		c1.5,0.2,2.9,0.1,4.4,0.1c3.2,0,6.5,0.1,9.7,0c3.4-0.2,4.9-1.6,5-5c0.2-4.1,0-8.3,0-12.5H304.2z M124.9,109.4H61.6l19.1,14.5h44.2
		V109.4z M243.7,179.7h11.2l0,0h30.2l14.3-9.5h-58.7L243.7,179.7z M372.8,105.1h51.7l19.1-14.5h-70.8V105.1z M372.8,123.8h27
		l19.1-14.5h-46.1V123.8z M372.8,86.3h76.4l19.1-14.5h-95.5V86.3z M153.7,53.7H25.5L8.1,68.2h121v55.7h16V68.2h8.5V53.7z
		 M103.8,141.4h39.1v-13.2H86.4L103.8,141.4z M163.4,150.6c-0.1,0-0.1,0-0.2,0c-0.9-7.4-1.8-14.9-2.6-22.2h-13.7V167h7.6v-23.3
		c0.1,0,0.2,0,0.3,0c1.1,7.8,2.2,15.5,3.3,23.4h9c1.1-7.8,2.2-15.5,3.3-23.3c0.1,0,0.2,0,0.3,0V167h9.3v-38.6h-13.7
		C165.2,135.8,164.3,143.2,163.4,150.6z M225.7,179.7l11.2,0l3.1-9.5h-58.5l13.3,9.5L225.7,179.7L225.7,179.7z M252.3,180.6h-9.2
		l-2.8-8.7l-2.8,8.7h-9.2l7.4,5.4l-2.8,8.7l7.4-5.4l7.4,5.4l-2.8-8.7L252.3,180.6z M245.9,186.3l0.2,0.7h12.5l8.7-6.4h-13.6
		L245.9,186.3z M234.7,186.3l-6.9-5l-0.9-0.7h-14.1l7.4,6.4h14.3L234.7,186.3z"/>
</g>
<g id="Tom_Cruise">
	<g>
		<path d="M124.9,14.2h-4.8v25.2h-4.3V14.2h-4.8v-3.8h13.8V14.2z"/>
		<path d="M153.7,36.7c0,1.8-0.9,2.7-2.6,2.7h-9.4c-1.7,0-2.6-0.9-2.6-2.7V13c0-1.8,0.9-2.7,2.6-2.7h9.4c1.7,0,2.6,0.9,2.6,2.7V36.7
			z M149.3,35.6V14.1h-5.9v21.6H149.3z"/>
		<path d="M186.5,39.4h-4.2V25.1c0-0.8,0.1-1.8,0.3-3.2l-3.7,14.8h-2.2L173,21.9c0.2,1.4,0.3,2.4,0.3,3.2v14.3h-4.2v-29h4.1l4.5,16
			c0,0.2,0.1,0.6,0.1,1.3c0-0.3,0-0.7,0.1-1.3l4.5-16h4.1V39.4z"/>
		<path d="M235,36.7c0,1.8-0.9,2.7-2.6,2.7h-9c-1.7,0-2.6-0.9-2.6-2.7V13c0-1.8,0.9-2.7,2.6-2.7h9c1.8,0,2.6,0.9,2.6,2.7v6.8h-4.3
			v-5.7h-5.6v21.6h5.6v-6.1h4.3V36.7z"/>
		<path d="M265.3,39.4h-4.5L256,25.9v-2.6h4.3v-9.2h-5.5v25.3h-4.3v-29h11.5c1.7,0,2.6,0.9,2.6,2.7v10.5c0,1.2-0.4,2-1.2,2.4
			c-0.4,0.2-1.4,0.3-2.8,0.3L265.3,39.4z"/>
		<path d="M294,36.7c0,1.8-0.9,2.7-2.7,2.7h-9.2c-1.8,0-2.6-0.9-2.6-2.7V10.4h4.3v25.3h5.8V10.4h4.3V36.7z"/>
		<path d="M313.6,39.4h-4.3v-29h4.3V39.4z"/>
		<path d="M342.9,36.7c0,1.8-0.9,2.7-2.6,2.7h-8.7c-1.7,0-2.6-0.9-2.6-2.7v-6.9h4.3v5.9h5.3V30l-8.7-8.2c-0.6-0.6-0.9-1.4-0.9-2.3
			V13c0-1.8,0.9-2.7,2.6-2.7h8.7c1.7,0,2.6,0.9,2.6,2.6v6.5h-4.3V14h-5.3v5.2l8.7,8.2c0.6,0.6,0.9,1.4,0.9,2.4V36.7z"/>
		<path d="M369.9,39.4h-12v-29h11.9v3.8h-7.6v8.5h6.5v3.8h-6.5v9.1h7.7V39.4z"/>
	</g>
</g>
</svg>
